<mxfile host="app.diagrams.net" modified="2021-08-01T06:33:25.335Z" agent="5.0 (Windows NT 10.0; Win64; x64) AppleWebKit/537.36 (KHTML, like Gecko) Chrome/91.0.4472.77 Safari/537.36" etag="I6WMebeHdKiRZ3Ptj_Qj" version="14.9.3" type="github">
  <diagram id="WfdQQAIe_U3fqsilbb9-" name="Page-1">
    <mxGraphModel dx="782" dy="706" grid="1" gridSize="10" guides="1" tooltips="1" connect="1" arrows="1" fold="1" page="1" pageScale="1" pageWidth="827" pageHeight="1169" math="0" shadow="0">
      <root>
        <mxCell id="0" />
        <mxCell id="1" parent="0" />
        <mxCell id="cf5KO_DWVNfv9P49GiRf-1" value="" style="rounded=1;whiteSpace=wrap;html=1;fillColor=#fff2cc;strokeColor=#d6b656;" vertex="1" parent="1">
          <mxGeometry x="110" y="280" width="80" height="60" as="geometry" />
        </mxCell>
        <mxCell id="cf5KO_DWVNfv9P49GiRf-2" value="&lt;font style=&quot;font-size: 14px&quot;&gt;&lt;b&gt;无结构文本&lt;/b&gt;&lt;/font&gt;" style="text;html=1;strokeColor=none;fillColor=none;align=center;verticalAlign=middle;whiteSpace=wrap;rounded=0;" vertex="1" parent="1">
          <mxGeometry x="105" y="295" width="95" height="30" as="geometry" />
        </mxCell>
        <mxCell id="cf5KO_DWVNfv9P49GiRf-3" value="" style="endArrow=classic;html=1;" edge="1" parent="1">
          <mxGeometry width="50" height="50" relative="1" as="geometry">
            <mxPoint x="190" y="310" as="sourcePoint" />
            <mxPoint x="560" y="310" as="targetPoint" />
          </mxGeometry>
        </mxCell>
        <mxCell id="cf5KO_DWVNfv9P49GiRf-4" value="" style="rounded=1;whiteSpace=wrap;html=1;fillColor=#d5e8d4;strokeColor=#82b366;" vertex="1" parent="1">
          <mxGeometry x="561" y="280" width="80" height="60" as="geometry" />
        </mxCell>
        <mxCell id="cf5KO_DWVNfv9P49GiRf-5" value="" style="rounded=1;whiteSpace=wrap;html=1;fillColor=#f8cecc;strokeColor=#b85450;" vertex="1" parent="1">
          <mxGeometry x="460" y="310" width="70" height="40" as="geometry" />
        </mxCell>
        <mxCell id="cf5KO_DWVNfv9P49GiRf-6" value="" style="rounded=1;whiteSpace=wrap;html=1;fillColor=#f8cecc;strokeColor=#b85450;" vertex="1" parent="1">
          <mxGeometry x="460" y="270" width="70" height="40" as="geometry" />
        </mxCell>
        <mxCell id="cf5KO_DWVNfv9P49GiRf-7" value="" style="rounded=1;whiteSpace=wrap;html=1;fillColor=#dae8fc;strokeColor=#6c8ebf;" vertex="1" parent="1">
          <mxGeometry x="280" y="310" width="70" height="60" as="geometry" />
        </mxCell>
        <mxCell id="cf5KO_DWVNfv9P49GiRf-8" value="" style="rounded=1;whiteSpace=wrap;html=1;fillColor=#dae8fc;strokeColor=#6c8ebf;" vertex="1" parent="1">
          <mxGeometry x="280" y="250" width="70" height="60" as="geometry" />
        </mxCell>
        <mxCell id="cf5KO_DWVNfv9P49GiRf-9" value="&lt;font style=&quot;font-size: 14px&quot;&gt;&lt;b&gt;触发词识别&lt;/b&gt;&lt;/font&gt;" style="text;html=1;strokeColor=none;fillColor=none;align=center;verticalAlign=middle;whiteSpace=wrap;rounded=0;" vertex="1" parent="1">
          <mxGeometry x="290" y="275" width="50" height="20" as="geometry" />
        </mxCell>
        <mxCell id="cf5KO_DWVNfv9P49GiRf-10" value="&lt;font style=&quot;font-size: 14px&quot;&gt;&lt;b&gt;事件类型识别&lt;/b&gt;&lt;/font&gt;" style="text;html=1;strokeColor=none;fillColor=none;align=center;verticalAlign=middle;whiteSpace=wrap;rounded=0;" vertex="1" parent="1">
          <mxGeometry x="295" y="330" width="40" height="20" as="geometry" />
        </mxCell>
        <mxCell id="cf5KO_DWVNfv9P49GiRf-11" value="&lt;font style=&quot;font-size: 14px&quot;&gt;&lt;b&gt;论元识别&lt;/b&gt;&lt;/font&gt;" style="text;html=1;strokeColor=none;fillColor=none;align=center;verticalAlign=middle;whiteSpace=wrap;rounded=0;" vertex="1" parent="1">
          <mxGeometry x="455" y="280" width="80" height="20" as="geometry" />
        </mxCell>
        <mxCell id="cf5KO_DWVNfv9P49GiRf-12" value="&lt;font style=&quot;font-size: 14px&quot;&gt;&lt;b&gt;角色分类&lt;/b&gt;&lt;/font&gt;" style="text;html=1;strokeColor=none;fillColor=none;align=center;verticalAlign=middle;whiteSpace=wrap;rounded=0;" vertex="1" parent="1">
          <mxGeometry x="450" y="320" width="90" height="20" as="geometry" />
        </mxCell>
        <mxCell id="cf5KO_DWVNfv9P49GiRf-13" value="&lt;font style=&quot;font-size: 14px&quot;&gt;&lt;b&gt;人工智能下游任务&lt;/b&gt;&lt;/font&gt;" style="text;html=1;strokeColor=none;fillColor=none;align=center;verticalAlign=middle;whiteSpace=wrap;rounded=0;" vertex="1" parent="1">
          <mxGeometry x="571.5" y="300" width="59" height="20" as="geometry" />
        </mxCell>
        <mxCell id="cf5KO_DWVNfv9P49GiRf-14" value="&lt;font style=&quot;font-size: 14px&quot;&gt;&lt;b&gt;事件检测&lt;/b&gt;&lt;/font&gt;" style="text;html=1;strokeColor=none;fillColor=none;align=center;verticalAlign=middle;whiteSpace=wrap;rounded=0;" vertex="1" parent="1">
          <mxGeometry x="200" y="290" width="60" height="20" as="geometry" />
        </mxCell>
        <mxCell id="cf5KO_DWVNfv9P49GiRf-15" value="&lt;font style=&quot;font-size: 14px&quot;&gt;&lt;b&gt;事件论元抽取&lt;/b&gt;&lt;/font&gt;" style="text;html=1;strokeColor=none;fillColor=none;align=center;verticalAlign=middle;whiteSpace=wrap;rounded=0;" vertex="1" parent="1">
          <mxGeometry x="360" y="290" width="90" height="20" as="geometry" />
        </mxCell>
      </root>
    </mxGraphModel>
  </diagram>
</mxfile>
